# xmcd CD database file
#
# Track frame offsets:
#	150
#	19041
#	35103
#	51560
#	75971
#	93993
#	118103
#	132289
#	149446
#	163571
#	189854
#	212009
#	242436
#	281181
#	301454
#	320792
#
# Disc length: 4517 seconds
#
# Revision: 1
# Processed by: cddbd v1.5.2PL0 Copyright (c) Steve Scherf et al.
# Submitted via: CDex 1.70beta2
#
DISCID=e411a310
DTITLE=Bill Withers - The Best of Bill Withers [CD 2)
DYEAR=2009
DGENRE=Soul
TTITLE0=Lovely day
TTITLE1=Soul shadows
TTITLE2=I want to spend the night
TTITLE3=Hello like before
TTITLE4=Oh yeah!
TTITLE5=You
TTITLE6=Green grass
TTITLE7=Can we pretend
TTITLE8=Heartbreak road
TTITLE9=Lovely night for dancing
TTITLE10=Grandma's hands (live)
TTITLE11=I can't write left handed (live)
TTITLE12=Use me (live)
TTITLE13=Friend of mine (live)
TTITLE14=Let me in in your life (live)
TTITLE15=Lonely town, lonely street (live)
EXTD=YEAR: 2009
EXTT0=
EXTT1=
EXTT2=
EXTT3=
EXTT4=
EXTT5=
EXTT6=
EXTT7=
EXTT8=
EXTT9=
EXTT10=
EXTT11=
EXTT12=
EXTT13=
EXTT14=
EXTT15=
PLAYORDER=
